<?xml version="1.0" encoding="utf-8"?>
<!-- Generator: Adobe Illustrator 17.0.0, SVG Export Plug-In . SVG Version: 6.00 Build 0)  -->
<!DOCTYPE svg PUBLIC "-//W3C//DTD SVG 1.1//EN" "http://www.w3.org/Graphics/SVG/1.1/DTD/svg11.dtd">
<svg version="1.1" id="Layer_1" xmlns="http://www.w3.org/2000/svg" xmlns:xlink="http://www.w3.org/1999/xlink" x="0px" y="0px"
	 width="131.074px" height="100.072px" viewBox="0 0 131.074 100.072" enable-background="new 0 0 131.074 100.072"
	 xml:space="preserve">
<g>
	<path d="M57.104,0c0,1.327-0.122,2.667,0.024,3.977c0.376,3.385,2.878,6.464,5.509,6.952c2.821,0.524,6.898-1.346,8.473-4.092
		c0.973-1.695,1.657-3.556,2.636-5.706c3.138-0.957,6.369,1.242,10.27,0.815c0,2.333-0.06,4.443,0.012,6.548
		c0.188,5.551,3.921,7.994,9.094,5.982c2.271-0.884,3.865-2.473,4.915-4.677c1.929-4.046,1.957-4.049,6.456-2.872
		c2.057,0.538,4.095,1.144,6.118,1.712c-0.25,2.241-0.588,4.155-0.652,6.077c-0.116,3.511,0.957,5.494,3.091,6.146
		c2.555,0.78,4.809-0.17,6.752-2.867c1.24-1.721,2.462-3.455,3.573-5.015c0.577,0.057,0.784,0.015,0.902,0.099
		c2.272,1.609,4.533,3.233,6.796,4.854c-0.329,2.98-2.74,4.789-4.091,7.194c-1.214,2.161-2.608,4.241-4.107,6.217
		c-2.143,2.824-1.163,2.691-4.822,1.461c-12.041-4.049-24.324-7.194-36.766-9.575c-11.265-2.156-22.758-2.757-34.2-1.976
		c-10.35,0.707-20.745,1.572-30.741,4.754c-2.639,0.84-5.249,1.771-8.065,2.725C5.609,23.252,2.918,17.772,0.27,12.272
		c-0.599-1.244-0.179-2.292,1.033-2.915c2.062-1.06,4.157-2.054,6.203-3.058c1.186,1.893,2.326,3.702,3.455,5.518
		c1.19,1.916,2.647,3.814,5.126,3.023c2.262-0.721,3.861-2.439,4.135-5.097c0.218-2.113,0.669-4.203,1.037-6.424
		c3.189-0.467,6.24-0.914,9.382-1.375c0.665,2.081,1.164,3.986,1.881,5.804c1.045,2.651,3.719,4.457,6.096,4.178
		c2.786-0.327,4.576-2.075,5.286-4.624C44.561,4.94,44.723,2.44,45.104,0C49.104,0,53.104,0,57.104,0z"/>
	<path d="M118.316,38.447c-1.936,1.581-3.925,3.104-5.794,4.762c-1.731,1.536-2.083,3.31-1.462,5.716
		c1.546,5.989,1.647,12.044,0.205,18.164c-2.81,11.922-10.771,18.612-21.998,21.886c-3.611,1.053-7.465,1.755-11.21,1.763
		c-8.201,0.016-14.701,3.338-20.464,9.333c-5.365-8.812-14.348-11.189-23.457-12.756c-5.828-1.003-10.083-4.172-13.906-8.016
		c-4.386-4.41-6.809-10.005-8.207-16.132c-1.589-6.964-1.147-13.89,0.303-20.67c0.852-3.985,0.77-7.437-1.697-11.206
		c16.187-4.913,32.357-6.986,48.771-6.16c20.007,1.007,39.558,4.683,58.334,11.815C117.928,37.446,118.122,37.947,118.316,38.447z
		 M50.774,43.111c-3.912,13.325-7.993,26.26-11.707,39.231c3.417,1.477,6.415,2.087,9.671,1.411
		c3.873-12.666,7.716-25.232,11.641-38.068c2.736,0.799,5.084,1.488,7.434,2.171c1.538,0.447,2.64-0.073,3.134-1.591
		c0.71-2.18,1.331-4.389,2.052-6.792c-1.06-0.451-2.069-1.007-3.149-1.319c-6.014-1.739-12.042-3.432-18.073-5.112
		c-2.178-0.607-4.379-1.132-6.569-1.694c-0.802,2.124-1.664,4.229-2.388,6.379c-0.742,2.201-0.622,2.39,1.512,3.16
		C46.479,41.663,48.647,42.38,50.774,43.111z"/>
</g>
</svg>
